<?xml version="1.0" encoding="UTF-8"?>
<svg width="2059px" height="1250px" viewBox="0 0 2059 1250" version="1.1" xmlns="http://www.w3.org/2000/svg" xmlns:xlink="http://www.w3.org/1999/xlink">
    <!-- Generator: Sketch 55.1 (78136) - https://sketchapp.com -->
    <title>Fawkes</title>
    <desc>Created with Sketch.</desc>
    <defs>
        <linearGradient x1="50%" y1="0%" x2="50%" y2="100%" id="linearGradient-1">
            <stop stop-color="#FF920E" offset="0%"></stop>
            <stop stop-color="#FF5005" offset="100%"></stop>
        </linearGradient>
        <path d="M1440.6343,84.1852407 C1404.20275,19.772204 1344.99157,-7.30709462 1263.00073,2.9473448 C1140.01448,18.3290039 1082.78027,73.8489342 938.962146,100.651054 C952.252668,122.889021 1005.41608,132.493201 1098.45238,129.463596 C1074.41421,166.766221 1007.85619,195.096875 898.778335,214.455558 C735.161552,243.493583 398.054087,100.308679 -2.27373675e-13,300.170614 C61.0268841,300.170614 192.682392,272.965266 447.50702,524.312203 C632.216993,679.055992 676.047165,496.742248 793.383324,457.277787 C910.719484,417.813326 890.709073,553.219163 823.318575,623.623041 C753.280289,701.349111 618.404367,789.151158 318.138969,806.259451 C403.405966,859.077535 754.108817,943.916392 1008.90224,724.283634 C1228.84062,524.312203 1253.33216,300.170614 1268.26303,248.414172 C1298.86927,110.086198 1356.32636,55.3432206 1440.6343,84.1852407 Z" id="path-2"></path>
        <linearGradient x1="50%" y1="0%" x2="72.5726127%" y2="71.6679455%" id="linearGradient-4">
            <stop stop-color="#FF9513" offset="0%"></stop>
            <stop stop-color="#C22519" offset="100%"></stop>
        </linearGradient>
        <linearGradient x1="50%" y1="0%" x2="72.5964079%" y2="71.6679455%" id="linearGradient-5">
            <stop stop-color="#FF9513" offset="0%"></stop>
            <stop stop-color="#C22519" offset="100%"></stop>
        </linearGradient>
        <linearGradient x1="6.32803665%" y1="43.5725758%" x2="92.6723205%" y2="53.4583088%" id="linearGradient-6">
            <stop stop-color="#FCB02A" offset="0%"></stop>
            <stop stop-color="#FF3804" offset="100%"></stop>
        </linearGradient>
        <linearGradient x1="29.3262554%" y1="46.2352483%" x2="71.5511558%" y2="53.3541379%" id="linearGradient-7">
            <stop stop-color="#FF8711" offset="0%"></stop>
            <stop stop-color="#FF4F0A" offset="100%"></stop>
        </linearGradient>
    </defs>
    <g id="Fawkes" stroke="none" stroke-width="1" fill="none" fill-rule="evenodd">
        <g id="Group" transform="translate(1042.500000, 627.072104) scale(-1, 1) translate(-1042.500000, -627.072104) translate(285.000000, 90.572104)">
            <g id="Path-3" transform="translate(74.000000, 63.427896)">
                <mask id="mask-3" fill="white">
                    <use xlink:href="#path-2"></use>
                </mask>
                <use id="Mask" fill="url(#linearGradient-1)" xlink:href="#path-2"></use>
                <path d="M1279.70987,202.521724 C1215.2829,320.363386 1125.61104,368.969125 1010.69427,348.338943 C838.319127,317.393669 687.653117,-95.1548885 265.482615,-60.6653392 C238.588143,-60.6653392 383.310852,-31.588951 471.601101,251.550077 C531.695987,417.427314 632.866406,488.371024 775.112357,464.381205 C857.227866,444.898399 890.559282,473.451045 875.106607,550.039143 C851.927593,664.92129 683.887274,901.175332 516.73491,1005.28547 C633.744849,965.933259 888.813916,842.708597 1008.90224,724.283634 C1201.28231,558.839363 1216.38939,462.059163 1258.11909,289.320887 C1262.71493,270.296573 1269.91186,241.363519 1279.70987,202.521724 Z" fill="url(#linearGradient-4)" opacity="0.763206845" mask="url(#mask-3)"></path>
            </g>
            <path d="M1355,265.910099 C1290.47853,383.862451 1200.67514,432.513847 1085.58982,411.864287 C912.961845,380.889946 762.074845,-32.0461272 339.285121,2.47581884 C312.351202,2.47581884 457.286183,31.5795191 545.705933,314.984505 C605.888964,481.017554 707.207775,552.027903 849.662367,528.01555 C885.22002,514.785164 908.731304,510.47239 920.196221,515.077229 C947.327772,525.974511 965.030828,550.693078 949.803283,613.753948 C922.289459,727.695212 758.303479,965.219966 590.905942,1069.4279 C708.087506,1030.03872 963.530698,906.698312 1083.79516,788.16211 C1263.69153,602.606803 1287.20414,523.499617 1333.37755,352.790794 C1338.48928,333.892078 1345.69677,304.931846 1355,265.910099 Z" id="Path-3-Copy" fill="url(#linearGradient-5)" opacity="0.763206845"></path>
            <path d="M1360,118.948717 C1330.58432,109.149289 1298.91766,112.39531 1265,128.686782 C1283.04939,132.814604 1295.58212,144.972402 1318.25802,141.950809 C1333.26563,138.351663 1347.17962,130.684299 1360,118.948717 Z" id="Path-2" fill="#FFFFFF"></path>
            <path d="M410,174.815207 C351.602117,123.129126 302.031559,26.8898639 0,55.7023127 C110.629185,178.393622 168.119647,205.564036 231.025767,195.518812 C293.931886,185.473588 343.393076,160.641687 410,174.815207 Z" id="Path" fill="url(#linearGradient-6)"></path>
            <path d="M562,1003.5996 C532.745777,1010.0462 503.697272,1006.19778 474.854485,992.054362 C431.590304,970.839229 375.621853,1002.01821 310,1064.81324 C352.354707,1064.81324 348.767178,1078.10947 428.852792,1069.56226 C482.243201,1063.86412 526.625604,1041.87657 562,1003.5996 Z" id="Path-4" fill="url(#linearGradient-7)"></path>
        </g>
    </g>
</svg>